<?xml version="1.0" encoding="utf-8"?>
<!-- Generator: Adobe Illustrator 21.0.0, SVG Export Plug-In . SVG Version: 6.00 Build 0)  -->
<svg version="1.1" id="图层_1" xmlns="http://www.w3.org/2000/svg" xmlns:xlink="http://www.w3.org/1999/xlink" x="0px" y="0px"
	 viewBox="0 0 16 16" style="enable-background:new 0 0 16 16;" xml:space="preserve">
<style type="text/css">
	.st0{fill:#BEC9D7;}
</style>
<g>
	<path class="st0" d="M8.2,8.6L8.2,8.6l0,2.4l1.3-1.3L8.2,8.6L8.2,8.6z M8.2,5v2.4l0,0l1.3-1.2L8.2,5z"/>
	<path class="st0" d="M11.7,1.3H4.3c-1.7,0-3,1.4-3,3v7.4c0,1.7,1.4,3,3,3h7.4c1.7,0,3-1.4,3-3V4.3C14.7,2.6,13.4,1.3,11.7,1.3z
		 M9,8.2l1.3,1.3c0.1,0.1,0.1,0.3,0,0.4L8,12.2c-0.2,0.2-0.5,0.1-0.5-0.2V9.1l-1.5,1.4c0,0-0.1,0-0.1,0L5.6,10c0,0,0-0.1,0-0.1
		l2-1.8V7.8L5.6,6c0,0,0-0.1,0-0.1L6,5.5c0,0,0.1,0,0.1,0l1.5,1.4V4c0-0.3,0.3-0.4,0.5-0.2l2.3,2.3c0.1,0.1,0.1,0.3,0,0.4L9,7.8
		C8.9,7.9,8.9,8.1,9,8.2z"/>
</g>
</svg>
