<?xml version="1.0" standalone="no"?><!DOCTYPE svg PUBLIC "-//W3C//DTD SVG 1.1//EN" "http://www.w3.org/Graphics/SVG/1.1/DTD/svg11.dtd"><svg t="1554887772672" class="icon" style="" viewBox="0 0 1024 1024" version="1.1" xmlns="http://www.w3.org/2000/svg" p-id="2240" xmlns:xlink="http://www.w3.org/1999/xlink" width="200" height="200"><defs><style type="text/css"></style></defs><path d="M318 178.12c64.58-14.8 133.36-11.67 196.06 9.95 39.75 13.83 77.12 35.09 108.07 63.75 36.87 33.78 64.29 78.71 73.62 128.14-47.31-2.17-95.26 5.38-139.01 23.72-33.47 14.01-64.64 34.07-90.01 60.12-24.55 24.9-43.6 55.52-53.59 89.12-7.87 26.48-10.02 54.67-6.07 82.02 1.52 11.72 4.92 23.07 7.89 34.46-37.36 1.32-75.02-2.44-111.06-12.59-8.91-3.24-19.21-3.01-27.43 2-20.39 11.75-40.8 23.47-61.17 35.25-4.17 2.19-8.43 5.96-13.48 4.67-5.36-1-8.78-6.95-7.43-12.14 5.04-18.82 10.16-37.62 15.17-56.45 1.5-5.41 0.63-11.43-2.42-16.14-3.21-4.89-8.58-7.55-12.89-11.3-43.17-33.09-77-79.75-90.1-132.95-8.75-35.23-8.13-72.72 1.77-107.65 9.4-33.68 27.23-64.71 50.32-90.86 42.01-47.52 100.33-78.91 161.76-93.12m-47.74 132.12c-8 7.63-12.63 18.73-12.19 29.8 0.1 9.91 4.34 19.62 11.17 26.75 7.63 8 18.74 12.54 29.79 12.15 9.4-0.16 18.69-3.86 25.65-10.18 10.58-9.27 15.52-24.37 12.46-38.11-0.74-1.43 1.56-3.83-0.99-4.03-4.91-14.65-18.56-26.12-34.11-27.37-11.55-1.32-23.47 2.9-31.78 10.99m222.16-10.69c-10.23 1.67-19.72 7.52-25.74 15.96-6.69 8.9-9.15 20.75-6.87 31.62 2.13 10.65 8.97 20.15 18.17 25.87 8.25 5.29 18.5 7.02 28.12 5.39 9.99-1.91 19.36-7.54 25.25-15.9 7.21-9.8 9.53-23.01 6.05-34.67-2.33-7.78-6.97-14.93-13.39-19.94-8.61-7.31-20.53-10.12-31.59-8.33z" p-id="2241" fill="#6aab4d"></path><path d="M669.22 400.42c44.78-1.18 90.02 7.44 130.66 26.47 29.61 13.82 56.82 33.14 78.63 57.55 20.4 22.71 35.95 50.01 43.64 79.63 8.38 31.41 7.71 65.14-1.88 96.19-13.08 42.86-42.16 79.68-78.19 105.78-5.74 3.78-8.98 11.14-7.19 17.89 4.21 15.98 8.59 31.92 12.78 47.91 1.98 6.79-6.46 12.81-12.28 8.93-18.95-10.72-37.67-21.84-56.62-32.55-5.67-3.26-12.59-4.1-18.88-2.36-62.55 18-131.18 15.21-191.64-9.15-38.18-15.39-73.17-39.63-99.11-71.78-24.32-29.91-39.94-67.21-42.02-105.86-2.62-40.85 10.19-81.99 33.77-115.26 23.17-33 55.83-58.73 92.1-76.01 36.2-17.3 76.18-26.32 116.23-27.38m-81.77 108.2c-14.87 2.66-26.77 16.32-27.37 31.4-0.78 11.24 4.59 22.61 13.67 29.24 7.07 5.37 16.32 7.67 25.09 6.4 10.94-1.54 21-8.72 25.71-18.76 3.12-6.12 3.95-13.23 3.1-20-1.7-11.16-9.26-21.28-19.61-25.84-6.36-3.08-13.7-3.67-20.59-2.44m169.64-0.5c-14.23 1.04-27.05 11.95-30.13 25.91-2.69 10.58 0.26 22.37 7.58 30.46 7.62 8.9 20.16 13.14 31.65 10.91 14.98-2.47 27.09-16.17 27.72-31.33 0.86-11.25-4.52-22.57-13.51-29.29-6.61-4.95-15.08-7.4-23.31-6.66z" p-id="2242" fill="#6aab4d"></path></svg>